<svg xmlns="http://www.w3.org/2000/svg" viewBox="0 0 1200 1100">
  <defs>
    <marker id="arrow" markerWidth="8" markerHeight="6" refX="7" refY="3" orient="auto">
      <polygon points="0 0, 8 3, 0 6" fill="#64748b"/>
    </marker>
    <marker id="arrow-cyan" markerWidth="8" markerHeight="6" refX="7" refY="3" orient="auto">
      <polygon points="0 0, 8 3, 0 6" fill="#22d3ee"/>
    </marker>
    <marker id="arrow-green" markerWidth="8" markerHeight="6" refX="7" refY="3" orient="auto">
      <polygon points="0 0, 8 3, 0 6" fill="#34d399"/>
    </marker>
    <marker id="arrow-purple" markerWidth="8" markerHeight="6" refX="7" refY="3" orient="auto">
      <polygon points="0 0, 8 3, 0 6" fill="#a78bfa"/>
    </marker>
    <marker id="arrow-amber" markerWidth="8" markerHeight="6" refX="7" refY="3" orient="auto">
      <polygon points="0 0, 8 3, 0 6" fill="#fbbf24"/>
    </marker>
    <pattern id="grid" width="40" height="40" patternUnits="userSpaceOnUse">
      <path d="M 40 0 L 0 0 0 40" fill="none" stroke="#1e293b" stroke-width="0.5"/>
    </pattern>
  </defs>
  
  <!-- Background -->
  <rect width="100%" height="100%" fill="#020617"/>
  <rect width="100%" height="100%" fill="url(#grid)"/>
  
  <!-- Header - at top with lots of space -->
  <circle cx="50" cy="50" r="6" fill="#22d3ee"/>
  <text x="70" y="55" fill="#22d3ee" font-size="16" font-weight="700" font-family="sans-serif">Pi Agent Optimus Architecture</text>
  <text x="70" y="78" fill="#94a3b8" font-size="11" font-family="sans-serif">Memory-augmented coding agent with autonomous workflow and continuous learning</text>
  
  <!-- User Input - pushed down -->
  <rect x="30" y="180" width="100" height="50" rx="6" fill="rgba(30,41,59,0.5)" stroke="#94a3b8" stroke-width="1.5"/>
  <text x="80" y="205" fill="white" font-size="10" font-weight="600" text-anchor="middle" font-family="sans-serif">User</text>
  <text x="80" y="220" fill="#94a3b8" font-size="8" text-anchor="middle" font-family="sans-serif">Input</text>

  <!-- Pi Core -->
  <rect x="180" y="165" width="160" height="80" rx="8" fill="rgba(8,51,68,0.5)" stroke="#22d3ee" stroke-width="2"/>
  <text x="260" y="190" fill="#22d3ee" font-size="10" font-weight="600" text-anchor="middle" font-family="sans-serif">Pi Core Agent</text>
  <text x="260" y="208" fill="#94a3b8" font-size="8" text-anchor="middle" font-family="sans-serif">Session Manager</text>
  <text x="260" y="222" fill="#94a3b8" font-size="8" text-anchor="middle" font-family="sans-serif">Skills Loader</text>
  <text x="260" y="236" fill="#94a3b8" font-size="8" text-anchor="middle" font-family="sans-serif">Tool Executor</text>

  <!-- Arrow: User to Pi -->
  <line x1="130" y1="205" x2="178" y2="205" stroke="#22d3ee" stroke-width="1.5" marker-end="url(#arrow-cyan)"/>

  <!-- AI Provider - starts well below header -->
  <rect x="180" y="100" width="160" height="50" rx="6" fill="rgba(120,53,15,0.4)" stroke="#fbbf24" stroke-width="1.5"/>
  <text x="260" y="122" fill="white" font-size="10" font-weight="600" text-anchor="middle" font-family="sans-serif">AI Provider</text>
  <text x="260" y="138" fill="#94a3b8" font-size="8" text-anchor="middle" font-family="sans-serif">Claude / GPT / Gemini</text>

  <!-- Arrow: Pi to Provider -->
  <line x1="260" y1="165" x2="260" y2="152" stroke="#fbbf24" stroke-width="1.5" marker-end="url(#arrow-amber)"/>

  <!-- Memory Layer -->
  <rect x="380" y="100" width="320" height="160" rx="8" fill="none" stroke="#a78bfa" stroke-width="1" stroke-dasharray="6,4"/>
  <text x="392" y="120" fill="#a78bfa" font-size="9" font-weight="600" font-family="sans-serif">Memory Layer</text>

  <rect x="390" y="130" width="90" height="40" rx="4" fill="rgba(76,29,149,0.5)" stroke="#a78bfa" stroke-width="1"/>
  <text x="435" y="150" fill="white" font-size="8" font-weight="600" text-anchor="middle" font-family="sans-serif">user-memory</text>
  <text x="435" y="162" fill="#94a3b8" font-size="7" text-anchor="middle" font-family="sans-serif">Cross-project</text>

  <rect x="490" y="130" width="90" height="40" rx="4" fill="rgba(76,29,149,0.5)" stroke="#a78bfa" stroke-width="1"/>
  <text x="535" y="150" fill="white" font-size="8" font-weight="600" text-anchor="middle" font-family="sans-serif">skill-memory</text>
  <text x="535" y="162" fill="#94a3b8" font-size="7" text-anchor="middle" font-family="sans-serif">Learned patterns</text>

  <rect x="590" y="130" width="90" height="40" rx="4" fill="rgba(76,29,149,0.5)" stroke="#a78bfa" stroke-width="1"/>
  <text x="635" y="150" fill="white" font-size="8" font-weight="600" text-anchor="middle" font-family="sans-serif">session.jsonl</text>
  <text x="635" y="162" fill="#94a3b8" font-size="7" text-anchor="middle" font-family="sans-serif">Conversation</text>

  <rect x="390" y="180" width="90" height="40" rx="4" fill="rgba(76,29,149,0.5)" stroke="#a78bfa" stroke-width="1"/>
  <text x="435" y="200" fill="white" font-size="8" font-weight="600" text-anchor="middle" font-family="sans-serif">.pi/memory</text>
  <text x="435" y="212" fill="#94a3b8" font-size="7" text-anchor="middle" font-family="sans-serif">Project</text>

  <rect x="490" y="180" width="90" height="40" rx="4" fill="rgba(76,29,149,0.5)" stroke="#a78bfa" stroke-width="1"/>
  <text x="535" y="200" fill="white" font-size="8" font-weight="600" text-anchor="middle" font-family="sans-serif">ci-alerts</text>
  <text x="535" y="212" fill="#94a3b8" font-size="7" text-anchor="middle" font-family="sans-serif">CI failures</text>

  <rect x="590" y="180" width="90" height="40" rx="4" fill="rgba(76,29,149,0.5)" stroke="#a78bfa" stroke-width="1"/>
  <text x="635" y="200" fill="white" font-size="8" font-weight="600" text-anchor="middle" font-family="sans-serif">processes</text>
  <text x="635" y="212" fill="#94a3b8" font-size="7" text-anchor="middle" font-family="sans-serif">Running</text>

  <!-- Arrow: Pi to Memory -->
  <line x1="340" y1="190" x2="378" y2="180" stroke="#a78bfa" stroke-width="1.5" marker-end="url(#arrow-purple)"/>

  <!-- Skills Layer -->
  <rect x="380" y="280" width="320" height="180" rx="8" fill="none" stroke="#34d399" stroke-width="1" stroke-dasharray="6,4"/>
  <text x="392" y="300" fill="#34d399" font-size="9" font-weight="600" font-family="sans-serif">Skills Layer</text>

  <rect x="390" y="310" width="90" height="38" rx="4" fill="rgba(6,78,59,0.6)" stroke="#34d399" stroke-width="1"/>
  <text x="435" y="328" fill="white" font-size="7" font-weight="600" text-anchor="middle" font-family="sans-serif">startup</text>
  <text x="435" y="340" fill="#94a3b8" font-size="6" text-anchor="middle" font-family="sans-serif">Auto-load prefs</text>

  <rect x="490" y="310" width="90" height="38" rx="4" fill="rgba(6,78,59,0.6)" stroke="#34d399" stroke-width="1"/>
  <text x="535" y="328" fill="white" font-size="7" font-weight="600" text-anchor="middle" font-family="sans-serif">skill-evolution</text>
  <text x="535" y="340" fill="#94a3b8" font-size="6" text-anchor="middle" font-family="sans-serif">Learn patterns</text>

  <rect x="590" y="310" width="90" height="38" rx="4" fill="rgba(6,78,59,0.6)" stroke="#34d399" stroke-width="1"/>
  <text x="635" y="328" fill="white" font-size="7" font-weight="600" text-anchor="middle" font-family="sans-serif">context-memory</text>
  <text x="635" y="340" fill="#94a3b8" font-size="6" text-anchor="middle" font-family="sans-serif">Project state</text>

  <rect x="390" y="358" width="90" height="38" rx="4" fill="rgba(6,78,59,0.6)" stroke="#34d399" stroke-width="1"/>
  <text x="435" y="376" fill="white" font-size="7" font-weight="600" text-anchor="middle" font-family="sans-serif">project-health</text>
  <text x="435" y="388" fill="#94a3b8" font-size="6" text-anchor="middle" font-family="sans-serif">CI, deps</text>

  <rect x="490" y="358" width="90" height="38" rx="4" fill="rgba(6,78,59,0.6)" stroke="#34d399" stroke-width="1"/>
  <text x="535" y="376" fill="white" font-size="7" font-weight="600" text-anchor="middle" font-family="sans-serif">ci-watcher</text>
  <text x="535" y="388" fill="#94a3b8" font-size="6" text-anchor="middle" font-family="sans-serif">Monitor CI</text>

  <rect x="590" y="358" width="90" height="38" rx="4" fill="rgba(6,78,59,0.6)" stroke="#34d399" stroke-width="1"/>
  <text x="635" y="376" fill="white" font-size="7" font-weight="600" text-anchor="middle" font-family="sans-serif">system-awareness</text>
  <text x="635" y="388" fill="#94a3b8" font-size="6" text-anchor="middle" font-family="sans-serif">Processes</text>

  <rect x="390" y="406" width="90" height="38" rx="4" fill="rgba(6,78,59,0.6)" stroke="#34d399" stroke-width="1"/>
  <text x="435" y="424" fill="white" font-size="7" font-weight="600" text-anchor="middle" font-family="sans-serif">auto-test</text>
  <text x="435" y="436" fill="#94a3b8" font-size="6" text-anchor="middle" font-family="sans-serif">Testing</text>

  <rect x="490" y="406" width="90" height="38" rx="4" fill="rgba(6,78,59,0.6)" stroke="#34d399" stroke-width="1"/>
  <text x="535" y="424" fill="white" font-size="7" font-weight="600" text-anchor="middle" font-family="sans-serif">file-watcher</text>
  <text x="535" y="436" fill="#94a3b8" font-size="6" text-anchor="middle" font-family="sans-serif">Watch mode</text>

  <rect x="590" y="406" width="90" height="38" rx="4" fill="rgba(6,78,59,0.6)" stroke="#34d399" stroke-width="1"/>
  <text x="635" y="424" fill="white" font-size="7" font-weight="600" text-anchor="middle" font-family="sans-serif">auto-recover</text>
  <text x="635" y="436" fill="#94a3b8" font-size="6" text-anchor="middle" font-family="sans-serif">Error fix</text>

  <!-- Arrow: Pi to Skills -->
  <line x1="340" y1="205" x2="378" y2="370" stroke="#34d399" stroke-width="1.5" marker-end="url(#arrow-green)"/>

  <!-- External Services -->
  <rect x="730" y="100" width="160" height="140" rx="8" fill="none" stroke="#fbbf24" stroke-width="1" stroke-dasharray="6,4"/>
  <text x="742" y="120" fill="#fbbf24" font-size="9" font-weight="600" font-family="sans-serif">External Services</text>

  <rect x="740" y="130" width="70" height="35" rx="4" fill="rgba(120,53,15,0.5)" stroke="#fbbf24" stroke-width="1"/>
  <text x="775" y="148" fill="white" font-size="7" font-weight="600" text-anchor="middle" font-family="sans-serif">GitHub CLI</text>
  <text x="775" y="160" fill="#94a3b8" font-size="6" text-anchor="middle" font-family="sans-serif">CI runs</text>

  <rect x="820" y="130" width="70" height="35" rx="4" fill="rgba(120,53,15,0.5)" stroke="#fbbf24" stroke-width="1"/>
  <text x="855" y="148" fill="white" font-size="7" font-weight="600" text-anchor="middle" font-family="sans-serif">Databases</text>
  <text x="855" y="160" fill="#94a3b8" font-size="6" text-anchor="middle" font-family="sans-serif">Postgres</text>

  <rect x="740" y="175" width="70" height="35" rx="4" fill="rgba(120,53,15,0.5)" stroke="#fbbf24" stroke-width="1"/>
  <text x="775" y="193" fill="white" font-size="7" font-weight="600" text-anchor="middle" font-family="sans-serif">Windows API</text>
  <text x="775" y="205" fill="#94a3b8" font-size="6" text-anchor="middle" font-family="sans-serif">Notify</text>

  <rect x="820" y="175" width="70" height="35" rx="4" fill="rgba(120,53,15,0.5)" stroke="#fbbf24" stroke-width="1"/>
  <text x="855" y="193" fill="white" font-size="7" font-weight="600" text-anchor="middle" font-family="sans-serif">watchdog</text>
  <text x="855" y="205" fill="#94a3b8" font-size="6" text-anchor="middle" font-family="sans-serif">File watch</text>

  <!-- More Skills -->
  <rect x="730" y="250" width="160" height="85" rx="8" fill="none" stroke="#34d399" stroke-width="1" stroke-dasharray="6,4"/>
  <text x="742" y="270" fill="#34d399" font-size="9" font-weight="600" font-family="sans-serif">More Skills</text>

  <rect x="740" y="280" width="70" height="30" rx="4" fill="rgba(6,78,59,0.6)" stroke="#34d399" stroke-width="1"/>
  <text x="775" y="298" fill="white" font-size="6" font-weight="600" text-anchor="middle" font-family="sans-serif">architecture-diagram</text>

  <rect x="820" y="280" width="70" height="30" rx="4" fill="rgba(6,78,59,0.6)" stroke="#34d399" stroke-width="1"/>
  <text x="855" y="298" fill="white" font-size="6" font-weight="600" text-anchor="middle" font-family="sans-serif">scheduler</text>

  <rect x="740" y="320" width="70" height="30" rx="4" fill="rgba(6,78,59,0.6)" stroke="#34d399" stroke-width="1"/>
  <text x="775" y="338" fill="white" font-size="6" font-weight="600" text-anchor="middle" font-family="sans-serif">db-introspect</text>

  <!-- Project Context -->
  <rect x="730" y="350" width="440" height="170" rx="8" fill="none" stroke="#fb7185" stroke-width="1" stroke-dasharray="6,4"/>
  <text x="742" y="370" fill="#fb7185" font-size="9" font-weight="600" font-family="sans-serif">Project Context</text>

  <rect x="740" y="380" width="100" height="40" rx="4" fill="rgba(136,19,55,0.5)" stroke="#fb7185" stroke-width="1"/>
  <text x="790" y="398" fill="white" font-size="7" font-weight="600" text-anchor="middle" font-family="sans-serif">Git Repo</text>
  <text x="790" y="412" fill="#94a3b8" font-size="6" text-anchor="middle" font-family="sans-serif">Code + commits</text>

  <rect x="850" y="380" width="100" height="40" rx="4" fill="rgba(136,19,55,0.5)" stroke="#fb7185" stroke-width="1"/>
  <text x="900" y="398" fill="white" font-size="7" font-weight="600" text-anchor="middle" font-family="sans-serif">package.json</text>
  <text x="900" y="412" fill="#94a3b8" font-size="6" text-anchor="middle" font-family="sans-serif">Dependencies</text>

  <rect x="960" y="380" width="100" height="40" rx="4" fill="rgba(136,19,55,0.5)" stroke="#fb7185" stroke-width="1"/>
  <text x="1010" y="398" fill="white" font-size="7" font-weight="600" text-anchor="middle" font-family="sans-serif">Test Files</text>
  <text x="1010" y="412" fill="#94a3b8" font-size="6" text-anchor="middle" font-family="sans-serif">Vitest / Jest</text>

  <rect x="740" y="430" width="100" height="40" rx="4" fill="rgba(136,19,55,0.5)" stroke="#fb7185" stroke-width="1"/>
  <text x="790" y="448" fill="white" font-size="7" font-weight="600" text-anchor="middle" font-family="sans-serif">Docker Compose</text>
  <text x="790" y="462" fill="#94a3b8" font-size="6" text-anchor="middle" font-family="sans-serif">Services</text>

  <rect x="850" y="430" width="100" height="40" rx="4" fill="rgba(136,19,55,0.5)" stroke="#fb7185" stroke-width="1"/>
  <text x="900" y="448" fill="white" font-size="7" font-weight="600" text-anchor="middle" font-family="sans-serif">Config Files</text>
  <text x="900" y="462" fill="#94a3b8" font-size="6" text-anchor="middle" font-family="sans-serif">tsconfig</text>

  <rect x="960" y="430" width="100" height="40" rx="4" fill="rgba(136,19,55,0.5)" stroke="#fb7185" stroke-width="1"/>
  <text x="1010" y="448" fill="white" font-size="7" font-weight="600" text-anchor="middle" font-family="sans-serif">Dockerfiles</text>
  <text x="1010" y="462" fill="#94a3b8" font-size="6" text-anchor="middle" font-family="sans-serif">Container</text>

  <rect x="740" y="480" width="320" height="30" rx="4" fill="rgba(136,19,55,0.4)" stroke="#fb7185" stroke-width="1"/>
  <text x="750" y="498" fill="#94a3b8" font-size="7" font-family="sans-serif">Dev Servers: Vite, Next.js, Cargo (tracked via system-awareness)</text>

  <!-- Arrows: Skills to External -->
  <line x1="680" y1="330" x2="728" y2="150" stroke="#fbbf24" stroke-width="1" marker-end="url(#arrow-amber)"/>
  <line x1="680" y1="380" x2="728" y2="200" stroke="#fbbf24" stroke-width="1" marker-end="url(#arrow-amber)"/>
  <line x1="680" y1="430" x2="728" y2="290" stroke="#fbbf24" stroke-width="1" marker-end="url(#arrow-amber)"/>

  <!-- Legend -->
  <rect x="30" y="550" width="1140" height="120" rx="8" fill="rgba(15,23,42,0.5)" stroke="#1e293b"/>
  <text x="45" y="575" fill="white" font-size="10" font-weight="600" font-family="sans-serif">Legend</text>
  
  <rect x="45" y="585" width="16" height="10" rx="2" fill="rgba(8,51,68,0.4)" stroke="#22d3ee" stroke-width="1"/>
  <text x="67" y="593" fill="#94a3b8" font-size="8" font-family="sans-serif">Frontend / User</text>
  
  <rect x="45" y="605" width="16" height="10" rx="2" fill="rgba(6,78,59,0.4)" stroke="#34d399" stroke-width="1"/>
  <text x="67" y="613" fill="#94a3b8" font-size="8" font-family="sans-serif">Skills / Capabilities</text>
  
  <rect x="45" y="625" width="16" height="10" rx="2" fill="rgba(76,29,149,0.4)" stroke="#a78bfa" stroke-width="1"/>
  <text x="67" y="633" fill="#94a3b8" font-size="8" font-family="sans-serif">Memory / Storage</text>
  
  <rect x="200" y="585" width="16" height="10" rx="2" fill="rgba(120,53,15,0.3)" stroke="#fbbf24" stroke-width="1"/>
  <text x="222" y="593" fill="#94a3b8" font-size="8" font-family="sans-serif">External Services</text>
  
  <rect x="200" y="605" width="16" height="10" rx="2" fill="rgba(136,19,55,0.4)" stroke="#fb7185" stroke-width="1"/>
  <text x="222" y="613" fill="#94a3b8" font-size="8" font-family="sans-serif">Project Context</text>
  
  <rect x="200" y="625" width="16" height="10" rx="2" fill="rgba(30,41,59,0.5)" stroke="#94a3b8" stroke-width="1"/>
  <text x="222" y="633" fill="#94a3b8" font-size="8" font-family="sans-serif">User Input</text>
  
  <rect x="350" y="585" width="16" height="10" rx="2" fill="none" stroke="#34d399" stroke-width="1" stroke-dasharray="4,4"/>
  <text x="372" y="593" fill="#94a3b8" font-size="8" font-family="sans-serif">Skill Layer Boundary</text>
  
  <rect x="350" y="605" width="16" height="10" rx="2" fill="none" stroke="#a78bfa" stroke-width="1" stroke-dasharray="4,4"/>
  <text x="372" y="613" fill="#94a3b8" font-size="8" font-family="sans-serif">Memory Layer Boundary</text>

  <!-- Summary Cards -->
  <rect x="30" y="690" width="370" height="130" rx="8" fill="rgba(76,29,149,0.2)" stroke="#a78bfa" stroke-width="1"/>
  <text x="45" y="715" fill="#a78bfa" font-size="10" font-weight="600" font-family="sans-serif">Memory Layer</text>
  <text x="45" y="740" fill="#94a3b8" font-size="8" font-family="sans-serif">- user-memory.md: Cross-project</text>
  <text x="45" y="755" fill="#94a3b8" font-size="8" font-family="sans-serif">- skill-memory.json: Learned patterns</text>
  <text x="45" y="770" fill="#94a3b8" font-size="8" font-family="sans-serif">- session.jsonl: Conversation history</text>
  <text x="45" y="785" fill="#94a3b8" font-size="8" font-family="sans-serif">- .pi/memory.md: Project conventions</text>
  <text x="45" y="800" fill="#94a3b8" font-size="8" font-family="sans-serif">- ci-alerts.json: CI failure tracking</text>

  <rect x="415" y="690" width="370" height="130" rx="8" fill="rgba(6,78,59,0.2)" stroke="#34d399" stroke-width="1"/>
  <text x="430" y="715" fill="#34d399" font-size="10" font-weight="600" font-family="sans-serif">Skills (12 total)</text>
  <text x="430" y="740" fill="#94a3b8" font-size="8" font-family="sans-serif">- startup: Auto-load preferences</text>
  <text x="430" y="755" fill="#94a3b8" font-size="8" font-family="sans-serif">- skill-evolution: Learn from experience</text>
  <text x="430" y="770" fill="#94a3b8" font-size="8" font-family="sans-serif">- project-health: CI/deps/tests</text>
  <text x="430" y="785" fill="#94a3b8" font-size="8" font-family="sans-serif">- system-awareness: Track processes</text>
  <text x="430" y="800" fill="#94a3b8" font-size="8" font-family="sans-serif">- auto-test + file-watcher: Test on save</text>

  <rect x="800" y="690" width="370" height="130" rx="8" fill="rgba(120,53,15,0.2)" stroke="#fbbf24" stroke-width="1"/>
  <text x="815" y="715" fill="#fbbf24" font-size="10" font-weight="600" font-family="sans-serif">External Integrations</text>
  <text x="815" y="740" fill="#94a3b8" font-size="8" font-family="sans-serif">- GitHub CLI: CI status monitoring</text>
  <text x="815" y="755" fill="#94a3b8" font-size="8" font-family="sans-serif">- PostgreSQL/MySQL: Schema introspection</text>
  <text x="815" y="770" fill="#94a3b8" font-size="8" font-family="sans-serif">- Windows API: Toast notifications</text>
  <text x="815" y="785" fill="#94a3b8" font-size="8" font-family="sans-serif">- watchdog: File change detection</text>
  <text x="815" y="800" fill="#94a3b8" font-size="8" font-family="sans-serif">- Claude API: AI inference</text>

  <!-- Footer -->
  <text x="600" y="870" fill="#475569" font-size="10" text-anchor="middle" font-family="sans-serif">github.com/benclawbot/Pi-Agent-Optimus - Based on badlogic/pi-mono</text>
</svg>
