<svg xmlns="http://www.w3.org/2000/svg" viewBox="0 0 1100 620">
  <defs>
    <style>
      @import url('https://fonts.googleapis.com/css2?family=JetBrains+Mono:wght@400;500;600;700&amp;display=swap');
      text { font-family: 'JetBrains Mono', monospace; }
    </style>
    <marker id="arrow" markerWidth="8" markerHeight="6" refX="7" refY="3" orient="auto">
      <polygon points="0 0, 8 3, 0 6" fill="#64748b"/>
    </marker>
    <pattern id="grid" width="30" height="30" patternUnits="userSpaceOnUse">
      <path d="M 30 0 L 0 0 0 30" fill="none" stroke="#1e293b" stroke-width="0.5"/>
    </pattern>
  </defs>
  
  <!-- Background -->
  <rect width="100%" height="100%" fill="#020617"/>
  <rect width="100%" height="100%" fill="url(#grid)"/>
  
  <!-- Header -->
  <text x="550" y="35" fill="#22d3ee" font-size="16" font-weight="700" text-anchor="middle">PI AGENT OPTIMUS</text>
  <text x="550" y="55" fill="#94a3b8" font-size="11" text-anchor="middle">Memory-Augmented Coding Agent Architecture</text>
  
  <!-- BASE PI SECTION (Left) -->
  <rect x="30" y="80" width="350" height="470" rx="8" fill="none" stroke="#64748b" stroke-width="1"/>
  <text x="205" y="105" fill="#64748b" font-size="12" font-weight="700" text-anchor="middle">BASE PI</text>
  
  <!-- User -->
  <rect x="50" y="125" width="180" height="45" rx="6" fill="rgba(30,41,59,0.6)" stroke="#64748b" stroke-width="1.5"/>
  <text x="140" y="145" fill="white" font-size="10" font-weight="600" text-anchor="middle">User</text>
  <text x="140" y="162" fill="#94a3b8" font-size="8" text-anchor="middle">Terminal Input</text>

  <!-- Core Pi -->
  <rect x="50" y="190" width="180" height="60" rx="6" fill="rgba(8,51,68,0.5)" stroke="#22d3ee" stroke-width="1.5"/>
  <text x="140" y="210" fill="#22d3ee" font-size="10" font-weight="600" text-anchor="middle">Pi Core Agent</text>
  <text x="140" y="225" fill="#94a3b8" font-size="8" text-anchor="middle">Session Manager</text>
  <text x="140" y="238" fill="#94a3b8" font-size="8" text-anchor="middle">Skills Loader | Tool Executor</text>

  <!-- Memory Base -->
  <rect x="50" y="270" width="180" height="40" rx="6" fill="rgba(76,29,149,0.4)" stroke="#a78bfa" stroke-width="1.5"/>
  <text x="140" y="290" fill="white" font-size="10" font-weight="600" text-anchor="middle">session.jsonl</text>
  <text x="140" y="303" fill="#94a3b8" font-size="8" text-anchor="middle">Session only</text>

  <!-- Skills Base -->
  <rect x="50" y="330" width="180" height="40" rx="6" fill="rgba(6,78,59,0.4)" stroke="#34d399" stroke-width="1.5"/>
  <text x="140" y="350" fill="white" font-size="10" font-weight="600" text-anchor="middle">Built-in Skills</text>
  <text x="140" y="363" fill="#94a3b8" font-size="8" text-anchor="middle">Basic set</text>

  <!-- External Base -->
  <rect x="50" y="390" width="180" height="40" rx="6" fill="rgba(120,53,15,0.4)" stroke="#fbbf24" stroke-width="1.5"/>
  <text x="140" y="410" fill="white" font-size="10" font-weight="600" text-anchor="middle">AI Provider</text>
  <text x="140" y="423" fill="#94a3b8" font-size="8" text-anchor="middle">Claude / GPT</text>

  <!-- Output Base -->
  <rect x="50" y="450" width="180" height="40" rx="6" fill="rgba(30,41,59,0.6)" stroke="#94a3b8" stroke-width="1.5"/>
  <text x="140" y="470" fill="white" font-size="10" font-weight="600" text-anchor="middle">Terminal Output</text>
  <text x="140" y="483" fill="#94a3b8" font-size="8" text-anchor="middle">Text, files</text>

  <!-- Base Stats -->
  <rect x="50" y="510" width="180" height="35" rx="6" fill="rgba(30,41,59,0.4)"/>
  <text x="140" y="530" fill="#94a3b8" font-size="8" text-anchor="middle">Skills: ~10 | Memory: Session only</text>

  <!-- VS DIVIDER -->
  <line x1="400" y1="95" x2="400" y2="555" stroke="#f59e0b" stroke-width="2" stroke-dasharray="8,4"/>
  <text x="400" y="330" fill="#f59e0b" font-size="24" font-weight="700" text-anchor="middle">VS</text>

  <!-- PI AGENT OPTIMUS SECTION (Right) -->
  <rect x="420" y="80" width="500" height="470" rx="8" fill="rgba(6,78,59,0.15)" stroke="#22c55e" stroke-width="2"/>
  <text x="670" y="105" fill="#22c55e" font-size="12" font-weight="700" text-anchor="middle">PI AGENT OPTIMUS</text>

  <!-- User (same) -->
  <rect x="440" y="125" width="180" height="45" rx="6" fill="rgba(30,41,59,0.6)" stroke="#64748b" stroke-width="1.5"/>
  <text x="530" y="145" fill="white" font-size="10" font-weight="600" text-anchor="middle">User</text>
  <text x="530" y="162" fill="#94a3b8" font-size="8" text-anchor="middle">Terminal Input</text>

  <!-- Core Pi -->
  <rect x="440" y="190" width="180" height="60" rx="6" fill="rgba(8,51,68,0.5)" stroke="#22d3ee" stroke-width="1.5"/>
  <text x="530" y="210" fill="#22d3ee" font-size="10" font-weight="600" text-anchor="middle">Pi Core Agent</text>
  <text x="530" y="225" fill="#94a3b8" font-size="8" text-anchor="middle">Session Manager</text>
  <text x="530" y="238" fill="#94a3b8" font-size="8" text-anchor="middle">Skills Loader | Tool Executor</text>

  <!-- NEW: Memory Layer -->
  <rect x="440" y="260" width="460" height="75" rx="6" fill="none" stroke="#a78bfa" stroke-width="1" stroke-dasharray="4,4"/>
  <text x="450" y="275" fill="#a78bfa" font-size="8" font-weight="700">MEMORY LAYER (NEW)</text>
  
  <rect x="450" y="285" width="100" height="40" rx="4" fill="rgba(76,29,149,0.5)" stroke="#a78bfa" stroke-width="1"/>
  <text x="500" y="302" fill="white" font-size="8" font-weight="600" text-anchor="middle">user-memory</text>
  <text x="500" y="317" fill="#94a3b8" font-size="7" text-anchor="middle">Cross-project</text>
  
  <rect x="560" y="285" width="100" height="40" rx="4" fill="rgba(76,29,149,0.5)" stroke="#a78bfa" stroke-width="1"/>
  <text x="610" y="302" fill="white" font-size="8" font-weight="600" text-anchor="middle">skill-memory</text>
  <text x="610" y="317" fill="#94a3b8" font-size="7" text-anchor="middle">Learned patterns</text>
  
  <rect x="670" y="285" width="100" height="40" rx="4" fill="rgba(76,29,149,0.5)" stroke="#a78bfa" stroke-width="1"/>
  <text x="720" y="302" fill="white" font-size="8" font-weight="600" text-anchor="middle">.pi/memory</text>
  <text x="720" y="317" fill="#94a3b8" font-size="7" text-anchor="middle">Project</text>

  <rect x="780" y="285" width="100" height="40" rx="4" fill="rgba(76,29,149,0.5)" stroke="#a78bfa" stroke-width="1"/>
  <text x="830" y="302" fill="white" font-size="7" font-weight="600" text-anchor="middle">session.jsonl</text>
  <text x="830" y="317" fill="#94a3b8" font-size="6" text-anchor="middle">+ CI alerts</text>

  <!-- NEW: Skills Layer -->
  <rect x="440" y="345" width="460" height="115" rx="6" fill="none" stroke="#34d399" stroke-width="1" stroke-dasharray="4,4"/>
  <text x="450" y="360" fill="#34d399" font-size="8" font-weight="700">SKILLS LAYER (12 SKILLS)</text>
  
  <rect x="450" y="370" width="85" height="25" rx="3" fill="rgba(6,78,59,0.6)" stroke="#34d399" stroke-width="1"/>
  <text x="492" y="385" fill="white" font-size="7" font-weight="600" text-anchor="middle">startup</text>
  
  <rect x="545" y="370" width="85" height="25" rx="3" fill="rgba(6,78,59,0.6)" stroke="#34d399" stroke-width="1"/>
  <text x="587" y="385" fill="white" font-size="7" font-weight="600" text-anchor="middle">skill-evolution</text>
  
  <rect x="640" y="370" width="85" height="25" rx="3" fill="rgba(6,78,59,0.6)" stroke="#34d399" stroke-width="1"/>
  <text x="682" y="385" fill="white" font-size="7" font-weight="600" text-anchor="middle">project-health</text>
  
  <rect x="735" y="370" width="85" height="25" rx="3" fill="rgba(6,78,59,0.6)" stroke="#34d399" stroke-width="1"/>
  <text x="777" y="385" fill="white" font-size="7" font-weight="600" text-anchor="middle">system-awareness</text>

  <rect x="450" y="405" width="85" height="25" rx="3" fill="rgba(6,78,59,0.6)" stroke="#34d399" stroke-width="1"/>
  <text x="492" y="420" fill="white" font-size="7" font-weight="600" text-anchor="middle">auto-test</text>
  
  <rect x="545" y="405" width="85" height="25" rx="3" fill="rgba(6,78,59,0.6)" stroke="#34d399" stroke-width="1"/>
  <text x="587" y="420" fill="white" font-size="7" font-weight="600" text-anchor="middle">file-watcher</text>
  
  <rect x="640" y="405" width="85" height="25" rx="3" fill="rgba(6,78,59,0.6)" stroke="#34d399" stroke-width="1"/>
  <text x="682" y="420" fill="white" font-size="7" font-weight="600" text-anchor="middle">ci-watcher</text>
  
  <rect x="735" y="405" width="85" height="25" rx="3" fill="rgba(6,78,59,0.6)" stroke="#34d399" stroke-width="1"/>
  <text x="777" y="420" fill="white" font-size="7" font-weight="600" text-anchor="middle">auto-recover</text>

  <rect x="450" y="440" width="85" height="25" rx="3" fill="rgba(6,78,59,0.6)" stroke="#34d399" stroke-width="1"/>
  <text x="492" y="455" fill="white" font-size="7" font-weight="600" text-anchor="middle">context-memory</text>
  
  <rect x="545" y="440" width="85" height="25" rx="3" fill="rgba(6,78,59,0.6)" stroke="#34d399" stroke-width="1"/>
  <text x="587" y="455" fill="white" font-size="7" font-weight="600" text-anchor="middle">architecture-diagram</text>
  
  <rect x="640" y="440" width="85" height="25" rx="3" fill="rgba(6,78,59,0.6)" stroke="#34d399" stroke-width="1"/>
  <text x="682" y="455" fill="white" font-size="7" font-weight="600" text-anchor="middle">scheduler</text>
  
  <rect x="735" y="440" width="85" height="25" rx="3" fill="rgba(6,78,59,0.6)" stroke="#34d399" stroke-width="1"/>
  <text x="777" y="455" fill="white" font-size="7" font-weight="600" text-anchor="middle">db-introspect</text>

  <!-- NEW: External Integrations -->
  <rect x="440" y="475" width="460" height="65" rx="6" fill="none" stroke="#fbbf24" stroke-width="1" stroke-dasharray="4,4"/>
  <text x="450" y="490" fill="#fbbf24" font-size="8" font-weight="700">EXTERNAL (NEW)</text>
  
  <rect x="450" y="500" width="85" height="30" rx="4" fill="rgba(120,53,15,0.5)" stroke="#fbbf24" stroke-width="1"/>
  <text x="492" y="515" fill="white" font-size="8" font-weight="600" text-anchor="middle">GitHub CLI</text>
  <text x="492" y="527" fill="#94a3b8" font-size="6" text-anchor="middle">CI runs</text>
  
  <rect x="545" y="500" width="85" height="30" rx="4" fill="rgba(120,53,15,0.5)" stroke="#fbbf24" stroke-width="1"/>
  <text x="587" y="515" fill="white" font-size="8" font-weight="600" text-anchor="middle">Databases</text>
  <text x="587" y="527" fill="#94a3b8" font-size="6" text-anchor="middle">Postgres/MySQL</text>
  
  <rect x="640" y="500" width="85" height="30" rx="4" fill="rgba(120,53,15,0.5)" stroke="#fbbf24" stroke-width="1"/>
  <text x="682" y="515" fill="white" font-size="8" font-weight="600" text-anchor="middle">Windows API</text>
  <text x="682" y="527" fill="#94a3b8" font-size="6" text-anchor="middle">Notifications</text>

  <rect x="735" y="500" width="155" height="30" rx="4" fill="rgba(136,19,55,0.5)" stroke="#fb7185" stroke-width="1"/>
  <text x="812" y="515" fill="#fb7185" font-size="7" font-weight="600" text-anchor="middle">+ Filesystem, watchdog</text>

  <!-- Optimus Stats -->
  <rect x="440" y="545" width="460" height="35" rx="6" fill="rgba(6,78,59,0.4)"/>
  <text x="520" y="565" fill="#34d399" font-size="10" font-weight="700" text-anchor="middle">12 SKILLS + 6 MEMORY FILES + 5+ INTEGRATIONS</text>
  <text x="820" y="565" fill="#22c55e" font-size="12" font-weight="700" text-anchor="middle">10x MORE CAPABLE</text>

  <!-- Legend -->
  <rect x="880" y="80" width="180" height="250" rx="6" fill="rgba(15,23,42,0.8)" stroke="#1e293b"/>
  <text x="890" y="100" fill="white" font-size="10" font-weight="600">Legend</text>
  
  <rect x="890" y="110" width="14" height="10" rx="2" fill="rgba(8,51,68,0.5)" stroke="#22d3ee" stroke-width="1"/>
  <text x="910" y="118" fill="#94a3b8" font-size="8">Pi Core</text>
  
  <rect x="890" y="128" width="14" height="10" rx="2" fill="rgba(30,41,59,0.5)" stroke="#64748b" stroke-width="1"/>
  <text x="910" y="136" fill="#94a3b8" font-size="8">User/External</text>
  
  <rect x="890" y="146" width="14" height="10" rx="2" fill="rgba(76,29,149,0.5)" stroke="#a78bfa" stroke-width="1"/>
  <text x="910" y="154" fill="#94a3b8" font-size="8">Memory Layer</text>
  
  <rect x="890" y="164" width="14" height="10" rx="2" fill="rgba(6,78,59,0.5)" stroke="#34d399" stroke-width="1"/>
  <text x="910" y="172" fill="#94a3b8" font-size="8">Skills Layer</text>
  
  <rect x="890" y="182" width="14" height="10" rx="2" fill="rgba(120,53,15,0.5)" stroke="#fbbf24" stroke-width="1"/>
  <text x="910" y="190" fill="#94a3b8" font-size="8">External Svc</text>
  
  <rect x="890" y="200" width="14" height="10" rx="2" fill="none" stroke="#a78bfa" stroke-width="1" stroke-dasharray="3,3"/>
  <text x="910" y="208" fill="#94a3b8" font-size="8">New Layer</text>

  <!-- Stats Box -->
  <rect x="880" y="250" width="180" height="120" rx="6" fill="rgba(6,78,59,0.3)" stroke="#34d399"/>
  <text x="970" y="270" fill="#34d399" font-size="10" font-weight="700" text-anchor="middle">ENHANCEMENTS</text>
  <text x="970" y="295" fill="white" font-size="18" font-weight="700" text-anchor="middle">+12</text>
  <text x="970" y="310" fill="#94a3b8" font-size="8" text-anchor="middle">New Skills</text>
  <text x="970" y="335" fill="white" font-size="18" font-weight="700" text-anchor="middle">+6</text>
  <text x="970" y="350" fill="#94a3b8" font-size="8" text-anchor="middle">Memory Files</text>
  <text x="970" y="375" fill="white" font-size="18" font-weight="700" text-anchor="middle">5+</text>
  <text x="970" y="390" fill="#94a3b8" font-size="8" text-anchor="middle">Integrations</text>

  <!-- Footer -->
  <text x="550" y="590" fill="#475569" font-size="9" text-anchor="middle">github.com/benclawbot/Pi-Agent-Optimus | Based on badlogic/pi-mono</text>
</svg>
